# xmcd
#
# Track frame offsets:
#	150
#	13068
#	26459
#	42281
#	55585
#	66007
#	75952
#	90953
#	109557
#	118741
#	131273
#	148832
#	164003
#	180396
#	193528
#	207781
#
# Disc length: 2924 seconds
#
# Revision: 1
# Processed by: cddbd v1.5.2PL0 Copyright (c) Steve Scherf et al.
# Submitted via: audiograbber 1.83.01
#
DISCID=c60b6a10
DTITLE=Various Artist - An Irish Blessing
DYEAR=1998
DGENRE=Folk-Rock
TTITLE0=Brendan Quinn - A Mothers Loves a Blessing
TTITLE1=Bridie Gallagher - Moonlight in Mayo
TTITLE2=Leo McCaffrey - Mass Rock in the Glen
TTITLE3=Ann Williamson - Abide with me
TTITLE4=Roly Daniels - When Irish Eyes are smiling
TTITLE5=Brian Coll - The old House
TTITLE6=Gina Joyce - Mother dear of Mine
TTITLE7=Roly Daniels - Noreen Bawn
TTITLE8=Leo McCaffrey - Star of the Country Down
TTITLE9=Brian Coll - Mother Machree
TTITLE10=Bidgie Gallagher - My Mothers last Goodbye
TTITLE11=John McCloskey - Wild Colonial Boy
TTITLE12=Deirdre O Callaghan - Shule Aroon
TTITLE13=Leo McCaffrey - Mountains of Mourne
TTITLE14=John McCloskey - My Lagan Love
TTITLE15=Gina Joyce - Gentle Mother
EXTD=
EXTT0=
EXTT1=
EXTT2=
EXTT3=
EXTT4=
EXTT5=
EXTT6=
EXTT7=
EXTT8=
EXTT9=
EXTT10=
EXTT11=
EXTT12=
EXTT13=
EXTT14=
EXTT15=
PLAYORDER=
